<svg width="170" height="170" viewBox="0 0 170 170" fill="none" xmlns="http://www.w3.org/2000/svg">
<g filter="url(#filter0_dd_1409_49867)">
<mask id="mask0_1409_49867" style="mask-type:alpha" maskUnits="userSpaceOnUse" x="7" y="7" width="157" height="157">
<path fill-rule="evenodd" clip-rule="evenodd" d="M159.75 109.302C162.194 101.726 163.514 93.6458 163.514 85.2569C163.514 42.0368 128.477 7 85.2569 7C42.0368 7 7 42.0368 7 85.2569C7 128.477 42.0368 163.514 85.2569 163.514C94.81 163.514 103.963 161.802 112.427 158.668C119.666 135.766 137.278 117.473 159.75 109.302Z" fill="#A5E3B9"/>
</mask>
<g mask="url(#mask0_1409_49867)">
<circle cx="85.2569" cy="85.2569" r="78.2569" fill="#A5E3B9"/>
<path d="M85.5684 27.3552C84.9499 27.3552 84.3337 27.3649 83.7198 27.3841C83.3267 27.3963 83.0181 27.7249 83.0303 28.118C83.0426 28.511 83.3712 28.8197 83.7642 28.8074C84.3633 28.7887 84.9648 28.7793 85.5684 28.7793C86.1721 28.7793 86.7735 28.7887 87.3726 28.8074C87.7657 28.8197 88.0942 28.511 88.1065 28.118C88.1188 27.7249 87.8101 27.3963 87.4171 27.3841C86.8032 27.3649 86.1869 27.3552 85.5684 27.3552Z" fill="black"/>
<path d="M79.2776 29.1241C79.6685 29.081 79.9504 28.7292 79.9073 28.3383C79.8642 27.9474 79.5123 27.6655 79.1215 27.7087C77.8915 27.8444 76.673 28.0184 75.4673 28.2296C75.0799 28.2975 74.8209 28.6665 74.8888 29.0539C74.9567 29.4412 75.3257 29.7002 75.713 29.6323C76.8891 29.4263 78.0777 29.2565 79.2776 29.1241Z" fill="black"/>
<path d="M92.0154 27.7087C91.6245 27.6655 91.2727 27.9474 91.2296 28.3383C91.1864 28.7292 91.4683 29.081 91.8592 29.1241C93.0591 29.2565 94.2477 29.4263 95.4238 29.6323C95.8112 29.7002 96.1802 29.4412 96.248 29.0539C96.3159 28.6665 96.0569 28.2975 95.6696 28.2296C94.4638 28.0184 93.2454 27.8444 92.0154 27.7087Z" fill="black"/>
<path d="M100.175 29.2054C99.7943 29.1069 99.4059 29.3357 99.3074 29.7164C99.2089 30.0971 99.4376 30.4856 99.8184 30.5841C100.985 30.886 102.137 31.224 103.274 31.5971C103.647 31.7197 104.05 31.5163 104.172 31.1426C104.295 30.769 104.091 30.3667 103.718 30.244C102.553 29.8616 101.371 29.5149 100.175 29.2054Z" fill="black"/>
<path d="M71.3185 30.5841C71.6992 30.4856 71.928 30.0971 71.8295 29.7164C71.731 29.3357 71.3425 29.1069 70.9618 29.2054C69.7655 29.5149 68.5841 29.8616 67.419 30.244C67.0454 30.3667 66.8419 30.769 66.9646 31.1426C67.0872 31.5163 67.4895 31.7197 67.8632 31.5971C68.9995 31.2241 70.1517 30.886 71.3185 30.5841Z" fill="black"/>
<path d="M108.038 31.8562C107.676 31.7041 107.258 31.8748 107.106 32.2374C106.954 32.6001 107.125 33.0174 107.487 33.1694C108.597 33.6348 109.689 34.1344 110.761 34.6669C111.113 34.8418 111.541 34.6981 111.716 34.3459C111.891 33.9936 111.747 33.5663 111.395 33.3914C110.295 32.8455 109.176 32.3333 108.038 31.8562Z" fill="black"/>
<path d="M63.6494 33.1695C64.012 33.0174 64.1827 32.6001 64.0306 32.2375C63.8785 31.8748 63.4613 31.7041 63.0986 31.8562C61.961 32.3333 60.8417 32.8455 59.7423 33.3914C59.39 33.5663 59.2463 33.9936 59.4212 34.3459C59.5961 34.6981 60.0234 34.8418 60.3756 34.6669C61.4481 34.1344 62.5398 33.6348 63.6494 33.1695Z" fill="black"/>
<path d="M115.44 35.6052C115.103 35.4029 114.666 35.5122 114.463 35.8494C114.261 36.1867 114.371 36.624 114.708 36.8263C115.738 37.4446 116.748 38.0948 117.734 38.7753C118.058 38.9986 118.501 38.9172 118.725 38.5935C118.948 38.2698 118.867 37.8263 118.543 37.6031C117.531 36.9054 116.497 36.239 115.44 35.6052Z" fill="black"/>
<path d="M56.4291 36.8263C56.7663 36.624 56.8757 36.1867 56.6733 35.8495C56.471 35.5122 56.0337 35.4029 55.6964 35.6052C54.64 36.239 53.6054 36.9055 52.594 37.6031C52.2703 37.8263 52.1889 38.2698 52.4121 38.5935C52.6354 38.9172 53.0788 38.9986 53.4025 38.7753C54.3892 38.0948 55.3986 37.4446 56.4291 36.8263Z" fill="black"/>
<path d="M122.233 40.3696C121.928 40.1215 121.479 40.1676 121.231 40.4727C120.983 40.7777 121.029 41.2262 121.334 41.4744C122.266 42.232 123.173 43.0187 124.054 43.8329C124.343 44.0998 124.793 44.082 125.06 43.7932C125.327 43.5044 125.309 43.0539 125.02 42.787C124.117 41.9525 123.188 41.1462 122.233 40.3696Z" fill="black"/>
<path d="M49.8027 41.4744C50.1078 41.2262 50.1539 40.7778 49.9058 40.4727C49.6576 40.1676 49.2092 40.1215 48.9041 40.3696C47.9493 41.1462 47.0197 41.9525 46.1166 42.787C45.8278 43.0539 45.81 43.5044 46.0769 43.7932C46.3438 44.082 46.7943 44.0998 47.0831 43.8329C47.9642 43.0187 48.8712 42.232 49.8027 41.4744Z" fill="black"/>
<path d="M128.281 46.048C128.014 45.7592 127.564 45.7415 127.275 46.0084C126.986 46.2752 126.968 46.7257 127.235 47.0145C128.05 47.8957 128.836 48.8027 129.594 49.7342C129.842 50.0392 130.291 50.0854 130.596 49.8372C130.901 49.5891 130.947 49.1406 130.699 48.8356C129.922 47.8808 129.116 46.9512 128.281 46.048Z" fill="black"/>
<path d="M43.9015 47.0146C44.1683 46.7257 44.1506 46.2753 43.8618 46.0084C43.573 45.7415 43.1225 45.7592 42.8556 46.0481C42.021 46.9512 41.2147 47.8808 40.4381 48.8356C40.19 49.1406 40.2361 49.5891 40.5412 49.8372C40.8463 50.0854 41.2948 50.0392 41.5429 49.7342C42.3006 48.8027 43.0872 47.8957 43.9015 47.0146Z" fill="black"/>
<path d="M133.465 52.5254C133.242 52.2017 132.799 52.1203 132.475 52.3436C132.151 52.5669 132.07 53.0103 132.293 53.334C132.974 54.3207 133.624 55.33 134.242 56.3606C134.444 56.6978 134.882 56.8071 135.219 56.6048C135.556 56.4025 135.665 55.9651 135.463 55.6279C134.829 54.5715 134.163 53.5369 133.465 52.5254Z" fill="black"/>
<path d="M38.8439 53.334C39.0671 53.0103 38.9857 52.5669 38.662 52.3436C38.3383 52.1203 37.8949 52.2017 37.6716 52.5255C36.974 53.5369 36.3076 54.5715 35.6737 55.6279C35.4714 55.9651 35.5808 56.4025 35.918 56.6048C36.2552 56.8071 36.6926 56.6978 36.8949 56.3606C37.5132 55.33 38.1633 54.3207 38.8439 53.334Z" fill="black"/>
<path d="M137.677 59.6737C137.502 59.3215 137.075 59.1778 136.722 59.3527C136.37 59.5275 136.226 59.9549 136.401 60.3071C136.934 61.3795 137.434 62.4712 137.899 63.5808C137.991 63.8012 138.182 63.9507 138.398 63.9999H138.713C138.753 63.9909 138.792 63.9783 138.831 63.9621C139.193 63.81 139.364 63.3927 139.212 63.0301C138.735 61.8924 138.223 60.7732 137.677 59.6737Z" fill="black"/>
<path d="M138.398 107H138.714C138.753 107.009 138.792 107.021 138.831 107.038C139.193 107.19 139.364 107.607 139.212 107.97C138.735 109.107 138.223 110.227 137.677 111.326C137.502 111.678 137.075 111.822 136.722 111.647C136.37 111.472 136.226 111.045 136.401 110.693C136.934 109.62 137.434 108.529 137.899 107.419C137.991 107.199 138.181 107.049 138.398 107Z" fill="black"/>
<path d="M32.4233 107H32.7391C32.9555 107.049 33.1456 107.199 33.238 107.419C33.7033 108.529 34.2029 109.62 34.7355 110.693C34.9104 111.045 34.7666 111.472 34.4144 111.647C34.0622 111.822 33.6349 111.678 33.46 111.326C32.914 110.227 32.4018 109.107 31.9247 107.97C31.7727 107.607 31.9433 107.19 32.306 107.038C32.3446 107.021 32.3838 107.009 32.4233 107Z" fill="black"/>
<path d="M32.7388 63.9999H32.4236C32.3841 63.9909 32.3447 63.9783 32.306 63.9621C31.9433 63.81 31.7726 63.3927 31.9247 63.0301C32.4018 61.8924 32.914 60.7732 33.46 59.6737C33.6349 59.3215 34.0622 59.1778 34.4144 59.3527C34.7666 59.5276 34.9104 59.9549 34.7355 60.3071C34.2029 61.3795 33.7033 62.4712 33.238 63.5808C33.1456 63.8012 32.9553 63.9506 32.7388 63.9999Z" fill="black"/>
<path d="M135.463 115.372C135.665 115.035 135.556 114.597 135.219 114.395C134.882 114.193 134.444 114.302 134.242 114.639C133.624 115.67 132.974 116.679 132.293 117.666C132.07 117.989 132.151 118.433 132.475 118.656C132.799 118.879 133.242 118.798 133.465 118.474C134.163 117.463 134.829 116.428 135.463 115.372Z" fill="black"/>
<path d="M36.8949 114.639C36.6926 114.302 36.2552 114.193 35.918 114.395C35.5808 114.597 35.4714 115.035 35.6738 115.372C36.3076 116.428 36.974 117.463 37.6716 118.474C37.8949 118.798 38.3383 118.879 38.662 118.656C38.9857 118.433 39.0672 117.989 38.8439 117.666C38.1633 116.679 37.5132 115.67 36.8949 114.639Z" fill="black"/>
<path d="M130.699 122.164C130.947 121.859 130.901 121.411 130.596 121.163C130.291 120.914 129.842 120.961 129.594 121.266C128.836 122.197 128.05 123.104 127.235 123.985C126.968 124.274 126.986 124.724 127.275 124.991C127.564 125.258 128.014 125.241 128.281 124.952C129.116 124.049 129.922 123.119 130.699 122.164Z" fill="black"/>
<path d="M41.5429 121.266C41.2948 120.961 40.8463 120.914 40.5412 121.163C40.2362 121.411 40.19 121.859 40.4381 122.164C41.2147 123.119 42.021 124.049 42.8556 124.952C43.1225 125.241 43.573 125.258 43.8618 124.991C44.1506 124.725 44.1683 124.274 43.9015 123.985C43.0872 123.104 42.3006 122.197 41.5429 121.266Z" fill="black"/>
<path d="M125.02 128.213C125.309 127.946 125.327 127.495 125.06 127.207C124.793 126.918 124.343 126.9 124.054 127.167C123.173 127.981 122.266 128.768 121.334 129.525C121.029 129.774 120.983 130.222 121.231 130.527C121.479 130.832 121.928 130.878 122.233 130.63C123.188 129.854 124.117 129.047 125.02 128.213Z" fill="black"/>
<path d="M47.0831 127.167C46.7943 126.9 46.3438 126.918 46.0769 127.207C45.81 127.495 45.8278 127.946 46.1166 128.213C47.0197 129.047 47.9493 129.854 48.9041 130.63C49.2092 130.878 49.6576 130.832 49.9058 130.527C50.1539 130.222 50.1078 129.774 49.8027 129.525C48.8712 128.768 47.9642 127.981 47.0831 127.167Z" fill="black"/>
<path d="M118.543 133.397C118.867 133.173 118.948 132.73 118.725 132.406C118.501 132.083 118.058 132.001 117.734 132.224C116.748 132.905 115.738 133.555 114.708 134.173C114.371 134.376 114.261 134.813 114.464 135.15C114.666 135.488 115.103 135.597 115.44 135.395C116.497 134.761 117.531 134.094 118.543 133.397Z" fill="black"/>
<path d="M53.4026 132.224C53.0788 132.001 52.6354 132.083 52.4121 132.406C52.1889 132.73 52.2703 133.173 52.594 133.397C53.6054 134.094 54.64 134.761 55.6965 135.395C56.0337 135.597 56.471 135.488 56.6733 135.15C56.8757 134.813 56.7663 134.376 56.4291 134.173C55.3986 133.555 54.3893 132.905 53.4026 132.224Z" fill="black"/>
<path d="M60.3756 136.333C60.0234 136.158 59.5961 136.302 59.4212 136.654C59.2463 137.006 59.39 137.433 59.7423 137.608C60.8417 138.154 61.961 138.666 63.0986 139.144C63.4613 139.296 63.8785 139.125 64.0306 138.762C64.1827 138.4 64.012 137.982 63.6494 137.83C62.5398 137.365 61.4481 136.865 60.3756 136.333Z" fill="black"/>
<path d="M111.395 137.608C111.747 137.433 111.891 137.006 111.716 136.654C111.541 136.302 111.113 136.158 110.761 136.333C109.689 136.865 108.597 137.365 107.487 137.83C107.125 137.982 106.954 138.4 107.106 138.762C107.258 139.125 107.676 139.296 108.038 139.144C109.176 138.666 110.295 138.154 111.395 137.608Z" fill="black"/>
<path d="M103.718 140.756C104.091 140.633 104.295 140.231 104.172 139.857C104.05 139.483 103.647 139.28 103.274 139.403C102.137 139.776 100.985 140.114 99.8184 140.416C99.4376 140.514 99.2089 140.903 99.3074 141.283C99.4059 141.664 99.7944 141.893 100.175 141.794C101.371 141.485 102.553 141.138 103.718 140.756Z" fill="black"/>
<path d="M67.8632 139.403C67.4895 139.28 67.0872 139.483 66.9646 139.857C66.8419 140.231 67.0454 140.633 67.419 140.756C68.5841 141.138 69.7655 141.485 70.9618 141.794C71.3425 141.893 71.731 141.664 71.8295 141.283C71.928 140.903 71.6992 140.514 71.3185 140.416C70.1517 140.114 68.9995 139.776 67.8632 139.403Z" fill="black"/>
<path d="M75.713 141.367C75.3257 141.3 74.9566 141.559 74.8888 141.946C74.8209 142.333 75.0799 142.702 75.4673 142.77C76.673 142.981 77.8915 143.155 79.1215 143.291C79.5123 143.334 79.8642 143.052 79.9073 142.661C79.9504 142.271 79.6685 141.919 79.2776 141.876C78.0777 141.743 76.8891 141.573 75.713 141.367Z" fill="black"/>
<path d="M95.6696 142.77C96.0569 142.702 96.3159 142.333 96.248 141.946C96.1802 141.559 95.8112 141.3 95.4238 141.367C94.2477 141.573 93.0591 141.743 91.8592 141.876C91.4683 141.919 91.1864 142.271 91.2295 142.661C91.2727 143.052 91.6245 143.334 92.0154 143.291C93.2453 143.155 94.4638 142.981 95.6696 142.77Z" fill="black"/>
<path d="M83.7642 142.192C83.3712 142.18 83.0426 142.489 83.0303 142.882C83.018 143.275 83.3267 143.603 83.7198 143.616C84.3337 143.635 84.9499 143.645 85.5684 143.645C86.1869 143.645 86.8032 143.635 87.4171 143.616C87.8101 143.603 88.1188 143.275 88.1065 142.882C88.0942 142.489 87.7656 142.18 87.3726 142.192C86.7735 142.211 86.1721 142.22 85.5684 142.22C84.9648 142.22 84.3633 142.211 83.7642 142.192Z" fill="black"/>
<path fill-rule="evenodd" clip-rule="evenodd" d="M141.943 80.3905C141.422 79.8698 140.578 79.8698 140.057 80.3905L139.7 80.7473C139.325 81.1224 138.817 81.3331 138.286 81.3331H137.667C136.93 81.3331 136.333 81.9301 136.333 82.6665V83.286C136.333 83.8164 136.123 84.3251 135.748 84.7002L135.391 85.0572C134.87 85.5779 134.87 86.4221 135.391 86.9428L135.748 87.2998C136.123 87.6749 136.333 88.1836 136.333 88.714V89.3331C136.333 90.0695 136.93 90.6665 137.667 90.6665H138.286C138.816 90.6665 139.325 90.8772 139.7 91.2523L140.057 91.6095C140.578 92.1302 141.422 92.1302 141.943 91.6095L142.3 91.2523C142.675 90.8772 143.184 90.6665 143.714 90.6665H144.333C145.07 90.6665 145.667 90.0695 145.667 89.3331V88.714C145.667 88.1836 145.877 87.6749 146.252 87.2998L146.609 86.9428C147.13 86.4221 147.13 85.5779 146.609 85.0572L146.252 84.7002C145.877 84.3251 145.667 83.8164 145.667 83.286V82.6665C145.667 81.9301 145.07 81.3331 144.333 81.3331H143.714C143.183 81.3331 142.675 81.1224 142.3 80.7473L141.943 80.3905ZM142.888 84.3698C143.092 84.0634 143.009 83.6495 142.703 83.4453C142.397 83.2411 141.983 83.3238 141.779 83.6302L139.112 87.6302C138.908 87.9366 138.991 88.3505 139.297 88.5547C139.603 88.7589 140.017 88.6762 140.221 88.3698L142.888 84.3698ZM138.667 85.3333C139.219 85.3333 139.667 84.8856 139.667 84.3333C139.667 83.781 139.219 83.3333 138.667 83.3333C138.114 83.3333 137.667 83.781 137.667 84.3333C137.667 84.8856 138.114 85.3333 138.667 85.3333ZM144.333 87.6667C144.333 88.219 143.886 88.6667 143.333 88.6667C142.781 88.6667 142.333 88.219 142.333 87.6667C142.333 87.1144 142.781 86.6667 143.333 86.6667C143.886 86.6667 144.333 87.1144 144.333 87.6667Z" fill="black"/>
<path fill-rule="evenodd" clip-rule="evenodd" d="M30.9428 80.3905C30.4221 79.8698 29.5779 79.8698 29.0572 80.3905L28.7004 80.7473C28.3253 81.1224 27.8166 81.3331 27.2862 81.3331H26.6667C25.9303 81.3331 25.3333 81.9301 25.3333 82.6665V83.286C25.3333 83.8164 25.1226 84.3251 24.7475 84.7002L24.3905 85.0572C23.8698 85.5779 23.8698 86.4221 24.3905 86.9428L24.7475 87.2998C25.1226 87.6749 25.3333 88.1836 25.3333 88.714V89.3331C25.3333 90.0695 25.9303 90.6665 26.6667 90.6665H27.2858C27.8162 90.6665 28.3249 90.8772 28.7 91.2523L29.0572 91.6095C29.5779 92.1302 30.4221 92.1302 30.9428 91.6095L31.3 91.2523C31.6751 90.8772 32.1838 90.6665 32.7142 90.6665H33.3333C34.0697 90.6665 34.6667 90.0695 34.6667 89.3331V88.714C34.6667 88.1836 34.8774 87.6749 35.2525 87.2998L35.6095 86.9428C36.1302 86.4221 36.1302 85.5779 35.6095 85.0572L35.2525 84.7002C34.8774 84.3251 34.6667 83.8164 34.6667 83.286V82.6665C34.6667 81.9301 34.0697 81.3331 33.3333 81.3331H32.7138C32.1834 81.3331 31.6747 81.1224 31.2996 80.7473L30.9428 80.3905ZM31.888 84.3698C32.0923 84.0634 32.0095 83.6495 31.7031 83.4453C31.3968 83.2411 30.9829 83.3238 30.7786 83.6302L28.112 87.6302C27.9077 87.9366 27.9905 88.3505 28.2969 88.5547C28.6032 88.7589 29.0171 88.6762 29.2214 88.3698L31.888 84.3698ZM27.6667 85.3333C28.219 85.3333 28.6667 84.8856 28.6667 84.3333C28.6667 83.781 28.219 83.3333 27.6667 83.3333C27.1144 83.3333 26.6667 83.781 26.6667 84.3333C26.6667 84.8856 27.1144 85.3333 27.6667 85.3333ZM33.3333 87.6667C33.3333 88.219 32.8856 88.6667 32.3333 88.6667C31.7811 88.6667 31.3333 88.219 31.3333 87.6667C31.3333 87.1144 31.7811 86.6667 32.3333 86.6667C32.8856 86.6667 33.3333 87.1144 33.3333 87.6667Z" fill="black"/>
<path d="M52 86.7336V94.5279H61.5441V86.7336H52Z" fill="black"/>
<path d="M73.1415 68.4102V84.7509C73.1415 85.6397 72.868 86.0499 72.2527 86.0499C71.569 86.0499 71.4322 85.6397 71.4322 84.7509V68.4102C71.4322 67.7949 71.569 67.2479 72.3211 67.2479C73.0048 67.2479 73.1415 67.7949 73.1415 68.4102ZM68.2188 92.5452C70.475 92.5452 72.2527 90.6992 73.1415 89.4685V103.348C73.1415 104.1 73.0048 104.442 72.4578 104.442C71.9108 104.442 71.7057 104.1 71.7057 103.348V93.8442H63.0226V103.963C63.0226 108.134 65.3472 111.621 71.7057 111.621H73.1415C79.3633 111.621 82.0297 107.518 82.0297 103.279V68.4102C82.0297 63.2141 78.8847 59.8639 73.0048 59.8639H71.1587C65.0054 59.8639 62.544 63.8978 62.544 68.4786V86.3918C62.544 90.0155 64.4584 92.5452 67.8086 92.5452H68.2188Z" fill="black"/>
<path d="M83.1755 60.2741V77.4352H90.5595V67.1112H93.0893C93.0893 74.632 92.4739 76.5464 88.7819 90.0155C86.594 98.0832 86.4573 102.527 86.4573 107.45V111.142H96.6445V106.903C96.6445 100.955 97.0548 95.28 97.8752 88.2378C98.9008 78.9394 99.9947 73.6064 100.268 66.3591V60.2741H83.1755Z" fill="black"/>
<path d="M101.051 70.721C101.051 73.2997 102.317 74.6124 104.848 74.6124H105.411C107.755 74.6124 109.302 73.2997 109.302 70.721V62.9383C109.302 60.3128 107.943 59 105.458 59H104.848C102.504 59 101.051 60.3128 101.051 62.9383V70.721ZM113.334 59.2813L103.254 94.1631H106.63L116.663 59.2813H113.334ZM105.552 71.3305C105.552 71.6587 105.458 71.7994 105.176 71.7994C104.895 71.7994 104.801 71.6587 104.801 71.3305V62.2819C104.801 61.9537 104.895 61.7662 105.176 61.7662C105.458 61.7662 105.552 61.9537 105.552 62.2819V71.3305ZM110.615 90.4592C110.615 93.0848 111.881 94.3975 114.46 94.3975H115.022C117.366 94.3975 118.914 93.0848 118.914 90.4592V82.6765C118.914 80.0979 117.554 78.7851 115.069 78.7851H114.413C112.068 78.7851 110.615 80.051 110.615 82.6765V90.4592ZM114.788 91.5845C114.46 91.5845 114.413 91.3969 114.413 91.1156V82.0201C114.413 81.7388 114.46 81.5513 114.788 81.5513C115.022 81.5513 115.116 81.7388 115.116 82.0201V91.1156C115.116 91.3969 115.022 91.5845 114.788 91.5845Z" fill="black"/>
</g>
<path d="M112.43 158.669C119.669 135.768 137.28 117.475 159.751 109.304L112.43 158.669Z" fill="#008060"/>
</g>
<defs>
<filter id="filter0_dd_1409_49867" x="0.792407" y="0.792407" width="168.929" height="173.468" filterUnits="userSpaceOnUse" color-interpolation-filters="sRGB">
<feFlood flood-opacity="0" result="BackgroundImageFix"/>
<feColorMatrix in="SourceAlpha" type="matrix" values="0 0 0 0 0 0 0 0 0 0 0 0 0 0 0 0 0 0 127 0" result="hardAlpha"/>
<feOffset dy="1.24152"/>
<feGaussianBlur stdDeviation="1.24152"/>
<feColorMatrix type="matrix" values="0 0 0 0 0 0 0 0 0 0 0 0 0 0 0 0 0 0 0.15 0"/>
<feBlend mode="normal" in2="BackgroundImageFix" result="effect1_dropShadow_1409_49867"/>
<feColorMatrix in="SourceAlpha" type="matrix" values="0 0 0 0 0 0 0 0 0 0 0 0 0 0 0 0 0 0 127 0" result="hardAlpha"/>
<feOffset/>
<feGaussianBlur stdDeviation="3.1038"/>
<feColorMatrix type="matrix" values="0 0 0 0 0 0 0 0 0 0 0 0 0 0 0 0 0 0 0.05 0"/>
<feBlend mode="normal" in2="effect1_dropShadow_1409_49867" result="effect2_dropShadow_1409_49867"/>
<feBlend mode="normal" in="SourceGraphic" in2="effect2_dropShadow_1409_49867" result="shape"/>
</filter>
</defs>
</svg>
