<svg width="129" height="131" viewBox="0 0 129 131" fill="none" xmlns="http://www.w3.org/2000/svg">
<path d="M61.4013 1.5028C62.7134 -0.500936 65.65 -0.500933 66.962 1.5028L71.6715 8.69507C72.7215 10.2986 74.9067 10.6839 76.4419 9.53621L83.3273 4.38843C85.2455 2.95428 88.005 3.95866 88.5526 6.29031L90.5182 14.6596C90.9564 16.5256 92.878 17.635 94.7132 17.0815L102.944 14.5992C105.237 13.9076 107.487 15.7952 107.204 18.1735L106.188 26.7103C105.962 28.6137 107.388 30.3134 109.302 30.421L117.885 30.9034C120.277 31.0378 121.745 33.581 120.666 35.7191L116.792 43.3938C115.928 45.1049 116.687 47.19 118.448 47.9456L126.349 51.3346C128.55 52.2788 129.06 55.1708 127.315 56.8109L121.05 62.6977C119.653 64.0103 119.653 66.2292 121.05 67.5417L127.315 73.4286C129.06 75.0686 128.55 77.9606 126.349 78.9048L118.448 82.2938C116.687 83.0494 115.928 85.1345 116.792 86.8456L120.666 94.5203C121.745 96.6585 120.277 99.2016 117.885 99.336L109.302 99.8184C107.388 99.926 105.962 101.626 106.188 103.529L107.204 112.066C107.487 114.444 105.237 116.332 102.944 115.64L94.7132 113.158C92.878 112.604 90.9564 113.714 90.5182 115.58L88.5526 123.949C88.005 126.281 85.2455 127.285 83.3273 125.851L76.4419 120.703C74.9067 119.555 72.7215 119.941 71.6715 121.544L66.962 128.737C65.65 130.74 62.7134 130.74 61.4013 128.737L56.6918 121.544C55.6418 119.941 53.4566 119.555 51.9215 120.703L45.0361 125.851C43.1178 127.285 40.3583 126.281 39.8107 123.949L37.8451 115.58C37.4069 113.714 35.4853 112.604 33.6502 113.158L25.4194 115.64C23.1263 116.332 20.8767 114.444 21.1596 112.066L22.175 103.529C22.4014 101.626 20.9752 99.926 19.0614 99.8184L10.478 99.336C8.08667 99.2016 6.61837 96.6585 7.69763 94.5203L11.5716 86.8456C12.4353 85.1345 11.6764 83.0494 9.91484 82.2938L2.01404 78.9048C-0.187089 77.9606 -0.697023 75.0686 1.04844 73.4286L7.31364 67.5417C8.71052 66.2292 8.71052 64.0103 7.31364 62.6977L1.04844 56.8109C-0.697025 55.1708 -0.187087 52.2788 2.01404 51.3346L9.91484 47.9456C11.6764 47.19 12.4353 45.1049 11.5716 43.3938L7.69763 35.7191C6.61837 33.581 8.08667 31.0378 10.478 30.9034L19.0614 30.421C20.9752 30.3134 22.4014 28.6137 22.175 26.7103L21.1596 18.1735C20.8767 15.7952 23.1263 13.9076 25.4194 14.5992L33.6502 17.0815C35.4853 17.635 37.4069 16.5256 37.8451 14.6596L39.8107 6.29031C40.3583 3.95866 43.1178 2.95429 45.0361 4.38844L51.9215 9.53621C53.4566 10.6839 55.6418 10.2986 56.6918 8.69507L61.4013 1.5028Z" fill="#ED6C31"/>
<path d="M29.582 66.9697C30.9627 66.9697 32.082 65.8504 32.082 64.4697C32.082 63.089 30.9627 61.9697 29.582 61.9697C28.2013 61.9697 27.082 63.089 27.082 64.4697C27.082 65.8504 28.2013 66.9697 29.582 66.9697Z" fill="white"/>
<path d="M99.582 66.9697C100.963 66.9697 102.082 65.8504 102.082 64.4697C102.082 63.089 100.963 61.9697 99.582 61.9697C98.2013 61.9697 97.082 63.089 97.082 64.4697C97.082 65.8504 98.2013 66.9697 99.582 66.9697Z" fill="white"/>
<path d="M42.1229 39.919C40.6441 38.5931 39.3695 39.1591 37.7787 40.3307C36.8951 40.9856 36.5218 41.0519 36.1352 40.7053C35.7486 40.3587 35.7612 39.9167 36.1772 39.4528C36.6451 38.9308 37.1461 39.0138 37.5954 39.3294L38.9985 37.4143C37.8583 36.5664 36.3221 36.5491 34.8316 38.2116C33.4105 39.7968 33.4022 41.498 34.6684 42.6332C35.9346 43.7684 37.1252 43.685 38.9096 42.3558C39.8019 41.6912 40.1962 41.5042 40.6698 41.9288C41.0661 42.2841 41.0854 42.807 40.6088 43.3386C40.0542 43.9573 39.4896 43.8869 38.906 43.4683L37.4778 45.4308C38.7997 46.4067 40.4822 46.2414 41.9727 44.5788C43.5152 42.8583 43.3988 41.0628 42.1229 39.919Z" fill="white"/>
<path d="M45.7722 40.4284L47.9405 39.1475L46.0455 35.9397L48.3592 34.5729L50.2542 37.7807L52.4225 36.4998L47.7016 28.5082L45.5332 29.7892L47.3424 32.8517L45.0287 34.2184L43.2196 31.1559L41.0512 32.4369L45.7722 40.4284Z" fill="white"/>
<path d="M58.6233 34.9128C61.2463 34.3917 62.6491 32.3924 62.1356 29.8077L61.9332 28.7891C61.4096 26.1534 59.2801 25.0279 56.7845 25.5237C54.3398 26.0094 52.7613 27.9906 53.2723 30.5627L53.4772 31.594C53.9806 34.1278 56.0004 35.4339 58.6233 34.9128ZM58.2567 32.9342C57.1871 33.1467 56.33 32.4964 56.0467 31.0703L55.8418 30.0389C55.5585 28.6129 56.1045 27.6971 57.174 27.4846C58.2436 27.2721 59.0905 27.9376 59.3662 29.3255L59.5711 30.3569C59.8519 31.7702 59.339 32.7192 58.2567 32.9342Z" fill="white"/>
<path d="M65.3398 33.9721L67.8414 34.2626L68.2188 31.0131L69.3923 31.1494C71.6231 31.4085 72.9044 30.6164 73.123 28.7337L73.15 28.5016C73.3702 26.606 72.4326 25.4516 69.9826 25.1671L66.4107 24.7522L65.3398 33.9721ZM68.418 29.2981L68.6936 26.9254L69.6607 27.0377C70.4473 27.1291 70.827 27.4607 70.7356 28.2473L70.7132 28.4407C70.6233 29.2144 70.1846 29.5033 69.3723 29.4089L68.418 29.2981Z" fill="white"/>
<path d="M74.3381 35.5958L76.7392 36.4763L79.9346 27.7618L77.5336 26.8814L74.3381 35.5958Z" fill="white"/>
<path d="M78.8737 37.3434L81.0044 38.7101L82.8267 35.8691L85.0777 37.313L86.094 35.7286L83.843 34.2847L84.9574 32.5473L87.7438 34.3346L88.8022 32.6846L83.885 29.5306L78.8737 37.3434Z" fill="white"/>
<path d="M87.206 43.7674L88.8976 45.668L91.8552 43.0358L97.5917 41.4755L96.0037 39.6912L92.7648 40.6796L94.1137 37.5675L92.2927 35.5214L90.154 41.1437L87.206 43.7674Z" fill="white"/>
<path d="M39.3888 93.7894C40.8335 92.4264 40.3759 91.1091 39.3412 89.426C38.7623 88.4909 38.7274 88.1133 39.1051 87.757C39.4827 87.4006 39.9221 87.4501 40.3497 87.9034C40.8308 88.4133 40.7063 88.9055 40.3543 89.3269L42.1456 90.885C43.0857 89.8196 43.2312 88.2902 41.6989 86.6661C40.2379 85.1176 38.5433 84.9673 37.3064 86.1343C36.0695 87.3014 36.0531 88.4947 37.2288 90.3839C37.8166 91.3285 37.97 91.7371 37.5073 92.1736C37.1202 92.5388 36.5974 92.5145 36.1075 91.9951C35.5373 91.3908 35.6545 90.8341 36.1204 90.2874L34.284 88.7004C33.2011 89.9362 33.2255 91.6267 34.7578 93.2507C36.3435 94.9315 38.1424 94.9654 39.3888 93.7894Z" fill="white"/>
<path d="M41.3831 99.0322L43.5837 100.257L45.3954 97.0012L47.7435 98.3078L45.9319 101.563L48.1325 102.788L52.6458 94.6773L50.4451 93.4527L48.7156 96.5609L46.3674 95.2543L48.097 92.1461L45.8963 90.9215L41.3831 99.0322Z" fill="white"/>
<path d="M57.6581 105.687C60.2941 106.138 62.3187 104.772 62.7629 102.174L62.9379 101.15C63.3908 98.5017 61.8042 96.6896 59.2962 96.2607C56.8394 95.8407 54.6571 97.127 54.2151 99.7117L54.0379 100.748C53.6025 103.295 55.0222 105.236 57.6581 105.687ZM58.0228 103.708C56.948 103.524 56.3798 102.61 56.6249 101.177L56.8021 100.141C57.0471 98.7077 57.8844 98.0475 58.9592 98.2313C60.0341 98.4151 60.5872 99.3394 60.3488 100.734L60.1715 101.771C59.9287 103.191 59.1105 103.894 58.0228 103.708Z" fill="white"/>
<path d="M67.6759 106.176L70.1688 105.818L69.7041 102.58L70.8735 102.412C73.0965 102.093 74.1331 101 73.8639 99.1243L73.8307 98.893C73.5597 97.004 72.3585 96.1272 69.917 96.4776L66.3575 96.9883L67.6759 106.176ZM69.4589 100.871L69.1196 98.5067L70.0834 98.3684C70.8672 98.2559 71.319 98.4796 71.4315 99.2635L71.4591 99.4562C71.5697 100.227 71.2193 100.618 70.4098 100.735L69.4589 100.871Z" fill="white"/>
<path d="M78.9142 103.698L81.2913 102.755L77.8683 94.127L75.4912 95.0702L78.9142 103.698Z" fill="white"/>
<path d="M85.3708 100.789L87.4658 99.368L85.5712 96.5747L87.7844 95.0736L86.7278 93.5158L84.5146 95.0169L83.356 93.3087L86.0956 91.4505L84.9953 89.8282L80.1607 93.1073L85.3708 100.789Z" fill="white"/>
<path d="M95.623 92.2786L97.2657 90.3355L94.2419 87.7793L91.8869 82.3208L90.3449 84.145L91.7809 87.2118L88.5095 86.3161L86.7411 88.4079L92.6092 89.7308L95.623 92.2786Z" fill="white"/>
<path d="M71.2891 82.6989L80.6088 80.3828C80.6088 80.3828 76.5962 53.2541 76.5706 53.068C76.5451 52.8819 76.3825 52.7786 76.2475 52.7673C76.1135 52.7561 73.4896 52.7162 73.4896 52.7162C73.4896 52.7162 71.8903 51.1629 71.2891 50.575V82.6989Z" fill="white"/>
<path d="M70.2748 50.2652C70.2728 50.2662 69.8627 50.393 69.1725 50.6067C69.057 50.2324 68.8872 49.7723 68.6449 49.3101C67.8636 47.8192 66.7194 47.0308 65.3369 47.0287C65.3348 47.0287 65.3338 47.0287 65.3317 47.0287C65.2356 47.0287 65.1405 47.0379 65.0444 47.0461C65.0035 46.997 64.9626 46.949 64.9196 46.9019C64.3174 46.2577 63.5453 45.9438 62.6199 45.9714C60.8345 46.0225 59.0562 47.312 57.6144 49.6025C56.6 51.2141 55.828 53.2388 55.6092 54.8064C53.5589 55.4414 52.1253 55.8852 52.0936 55.8954C51.0587 56.2206 51.026 56.2523 50.891 57.2278C50.7898 57.9651 48.082 78.9032 48.082 78.9032L70.5468 82.788V50.2192C70.4364 50.2263 70.3372 50.2468 70.2748 50.2652ZM65.0873 51.8716C63.8981 52.2397 62.6005 52.6416 61.2987 53.0445C61.6648 51.6426 62.3591 50.2468 63.212 49.3316C63.529 48.991 63.9727 48.6117 64.4983 48.3949C64.9922 49.4256 65.0996 50.8848 65.0873 51.8716ZM62.6547 47.1596C63.0739 47.1504 63.4267 47.2425 63.7284 47.4408C63.2457 47.6914 62.7794 48.0513 62.3418 48.5207C61.2077 49.7375 60.3385 51.6262 59.9919 53.4484C58.911 53.7828 57.8537 54.111 56.8802 54.4117C57.4948 51.5434 59.8988 47.2394 62.6547 47.1596ZM59.181 63.4993C59.3017 65.4104 64.3296 65.8276 64.6119 70.3044C64.8338 73.8262 62.7436 76.2353 59.7322 76.4255C56.1174 76.6536 54.1275 74.5205 54.1275 74.5205L54.8934 71.2616C54.8934 71.2616 56.8966 72.7729 58.5 72.6717C59.5471 72.6052 59.9213 71.7534 59.8835 71.1511C59.726 68.6581 55.6317 68.8054 55.3729 64.7089C55.1551 61.2619 57.4191 57.7688 62.4144 57.4538C64.3388 57.3321 65.3246 57.824 65.3246 57.824L64.1824 62.0973C64.1824 62.0973 62.9083 61.5175 61.3979 61.6126C59.182 61.7527 59.1585 63.1495 59.181 63.4993ZM66.2746 51.5045C66.2613 50.6006 66.1539 49.3428 65.7326 48.2558C67.0875 48.5125 67.7542 50.0453 68.0364 50.9595C67.5139 51.12 66.9188 51.3041 66.2746 51.5045Z" fill="white"/>
</svg>
