<svg width="279" height="117" viewBox="0 0 279 117" fill="none" xmlns="http://www.w3.org/2000/svg">
<path d="M44.7993 103.226C68.0381 111.675 97.8405 116.251 127.102 116.852V116.931H144.932C176.27 116.931 208.854 112.324 233.846 103.237C246.324 98.7008 257.306 92.906 265.279 85.6776C273.327 78.3808 278.645 69.2734 278.645 58.4708C278.645 50.6175 275.546 39.8242 263.314 29.6163C253.051 21.0419 237.735 14.0808 219.446 9.09278C197.523 3.11507 171.756 0 144.932 0L133.714 0C102.376 0 69.7917 4.60691 44.7993 13.6933C32.3214 18.2297 21.3392 24.0245 13.3664 31.253C5.31822 38.5497 0 47.6571 0 58.4598C0 69.2624 5.31822 78.3698 13.3664 85.6665C21.3392 92.895 32.3214 98.6898 44.7993 103.226Z" fill="#CEC9F8"/>
<path d="M133.714 110.308C72.1027 110.308 6.6123 92.1368 6.6123 58.4604C6.6123 24.7841 72.1027 6.61255 133.714 6.61255L144.932 6.61255C171.28 6.61255 196.449 9.67604 217.707 15.4724C235.526 20.3321 249.829 26.966 259.075 34.6909C269.786 43.6279 272.034 52.5539 272.034 58.4715C272.034 92.1478 206.544 110.319 144.932 110.319L133.714 110.319V110.308Z" stroke="black" stroke-width="1.78947" stroke-miterlimit="10"/>
<path d="M20.9697 43.8399C37.279 26.6161 81.6114 14.2629 133.735 14.2629" stroke="black" stroke-width="1.78947" stroke-miterlimit="10"/>
<path d="M133.735 102.674C81.5672 102.674 37.2127 90.2986 20.9365 73.0527" stroke="black" stroke-width="1.78947" stroke-miterlimit="10"/>
<path d="M51.0449 43.8167C63.2989 26.6038 96.5344 14.2617 135.61 14.2617" stroke="black" stroke-width="1.78947" stroke-miterlimit="10"/>
<path d="M135.608 102.674C96.4551 102.674 63.1644 90.2772 50.9766 73.0093" stroke="black" stroke-width="1.78947" stroke-miterlimit="10"/>
<path d="M80.8877 44.2791C88.866 26.8238 111.192 14.2502 137.474 14.2502" stroke="black" stroke-width="1.78947" stroke-miterlimit="10"/>
<path d="M137.471 102.674C111.553 102.674 89.4914 90.4526 81.2266 73.3831" stroke="black" stroke-width="1.78947" stroke-miterlimit="10"/>
<path d="M111.198 43.6732C115.309 26.5375 126.361 14.2615 139.354 14.2615" stroke="black" stroke-width="1.78947" stroke-miterlimit="10"/>
<path d="M139.344 102.671C126.572 102.671 115.674 90.803 111.409 74.1191C111.255 73.5351 111.122 72.94 110.99 72.345" stroke="black" stroke-width="1.78947" stroke-miterlimit="10"/>
<path d="M257.984 44.1245C257.874 44.0032 257.764 43.882 257.654 43.7718C256.618 42.6809 255.461 41.612 254.205 40.5651C245.719 33.4904 232.374 27.3965 215.724 22.8564C195.921 17.4567 171.446 14.272 144.966 14.272" stroke="black" stroke-width="1.78947" stroke-miterlimit="10"/>
<path d="M144.954 102.674C197.353 102.674 241.884 90.1884 257.984 72.8103" stroke="black" stroke-width="1.78947" stroke-miterlimit="10"/>
<path d="M227.831 44.0819C227.5 43.6081 227.159 43.1342 226.795 42.6714C213.913 26.0536 181.294 14.2515 143.089 14.2515" stroke="black" stroke-width="1.78947" stroke-miterlimit="10"/>
<path d="M143.091 102.674C182.542 102.674 216.031 90.0898 227.998 72.6235" stroke="black" stroke-width="1.78947" stroke-miterlimit="10"/>
<path d="M197.529 43.6972C189.319 26.5395 167.202 14.2524 141.218 14.2524" stroke="black" stroke-width="1.78947" stroke-miterlimit="10"/>
<path d="M141.216 102.675C165.955 102.675 187.179 91.5451 196.248 75.6766C196.844 74.6298 197.383 73.5719 197.879 72.4919" stroke="black" stroke-width="1.78947" stroke-miterlimit="10"/>
<path d="M167.529 43.8505C163.452 26.6156 152.366 14.2625 139.341 14.2625" stroke="black" stroke-width="1.78947" stroke-miterlimit="10"/>
<path d="M139.344 102.674C152.479 102.674 163.631 90.1222 167.631 72.689" stroke="black" stroke-width="1.78947" stroke-miterlimit="10"/>
<path d="M139.341 43.7072C139.341 26.5495 139.341 14.2625 139.341 14.2625" stroke="black" stroke-width="1.78947" stroke-miterlimit="10"/>
<path d="M139.341 102.673C139.341 102.673 139.341 90.3534 139.341 73.1626" stroke="black" stroke-width="1.78947" stroke-miterlimit="10"/>
<path d="M217.791 23.4321C195.586 28.4792 168.532 31.4325 139.341 31.4325C110.15 31.4325 83.0964 28.4682 60.8916 23.4321" stroke="black" stroke-width="1.78947" stroke-miterlimit="10"/>
<path d="M217.781 93.5055C195.577 88.4584 168.534 85.5051 139.343 85.5051C110.152 85.5051 83.1091 88.4694 60.9043 93.5055" stroke="black" stroke-width="1.78947" stroke-miterlimit="10"/>
<path d="M6.61426 58.3612C6.61426 63.4854 8.13498 68.2459 10.923 72.6428L267.727 72.6428C270.515 68.2459 272.036 63.4854 272.036 58.3612C272.036 54.5704 271.099 49.5454 267.628 44.0796L10.923 44.0796C8.13498 48.4765 6.61426 53.237 6.61426 58.3612Z" stroke="black" stroke-width="1.78947" stroke-miterlimit="10"/>
<path d="M21.4079 58.4473C21.4079 57.2301 20.4212 56.2434 19.2039 56.2434C17.9867 56.2434 17 57.2301 17 58.4473C17 59.6645 17.9867 60.6513 19.2039 60.6513C20.4212 60.6513 21.4079 59.6645 21.4079 58.4473Z" fill="black"/>
<path d="M34.9736 59.8193C34.9736 57.9833 33.7976 57.4553 32.0096 57.0833C31.0136 56.8793 30.7376 56.6633 30.7376 56.1833C30.7376 55.7033 31.0496 55.4393 31.6256 55.4393C32.2736 55.4393 32.5256 55.8353 32.5856 56.3393L34.7696 56.1233C34.6496 54.8153 33.7136 53.7473 31.6496 53.7473C29.6816 53.7473 28.5056 54.7913 28.5056 56.3633C28.5056 57.9353 29.2976 58.7033 31.3136 59.1113C32.3216 59.3153 32.6936 59.4713 32.6936 60.0593C32.6936 60.5513 32.3456 60.8873 31.6856 60.8873C30.9176 60.8873 30.6176 60.4553 30.5456 59.7953L28.3136 60.0233C28.4576 61.5353 29.6096 62.5913 31.6736 62.5913C33.8096 62.5913 34.9736 61.4033 34.9736 59.8193Z" fill="black"/>
<path d="M38.0818 62.4473H40.4098V59.0033H42.8938V62.4473H45.2218V53.8673H42.8938V57.1553H40.4098V53.8673H38.0818V62.4473Z" fill="black"/>
<path d="M52.4508 62.5913C54.9228 62.5913 56.5548 61.0313 56.5548 58.5953V57.6353C56.5548 55.1513 54.8268 53.7473 52.4748 53.7473C50.1708 53.7473 48.3828 55.2593 48.3828 57.6833V58.6553C48.3828 61.0433 49.9788 62.5913 52.4508 62.5913ZM52.4748 60.7313C51.4668 60.7313 50.8068 59.9873 50.8068 58.6433V57.6713C50.8068 56.3273 51.4668 55.5953 52.4748 55.5953C53.4828 55.5953 54.1308 56.3513 54.1308 57.6593V58.6313C54.1308 59.9633 53.4948 60.7313 52.4748 60.7313Z" fill="black"/>
<path d="M59.7185 62.4473H62.0465V59.4233H63.1385C65.2145 59.4233 66.3065 58.5593 66.3065 56.8073V56.5913C66.3065 54.8273 65.3225 53.8673 63.0425 53.8673H59.7185V62.4473ZM62.0465 57.8273V55.6193H62.9465C63.6785 55.6193 64.0625 55.8833 64.0625 56.6153V56.7953C64.0625 57.5153 63.6905 57.8273 62.9345 57.8273H62.0465Z" fill="black"/>
<path d="M69.3834 62.4473H71.7474V53.8673H69.3834V62.4473Z" fill="black"/>
<path d="M75.2732 62.4473H77.6132V59.3273H80.0852V57.5873H77.6132V55.6793H80.6732V53.8673H75.2732V62.4473Z" fill="black"/>
<path d="M85.7085 62.4473H88.0605V58.7873L90.5085 53.8673H88.3005L86.9925 56.7113L85.6725 53.8673H83.1405L85.7085 58.7993V62.4473Z" fill="black"/>
<path d="M101.605 58.4473C101.605 57.2301 100.619 56.2434 99.4013 56.2434C98.1841 56.2434 97.1974 57.2301 97.1974 58.4473C97.1974 59.6645 98.1841 60.6513 99.4013 60.6513C100.619 60.6513 101.605 59.6645 101.605 58.4473Z" fill="black"/>
<path d="M115.171 59.8193C115.171 57.9833 113.995 57.4553 112.207 57.0833C111.211 56.8793 110.935 56.6633 110.935 56.1833C110.935 55.7033 111.247 55.4393 111.823 55.4393C112.471 55.4393 112.723 55.8353 112.783 56.3393L114.967 56.1233C114.847 54.8153 113.911 53.7473 111.847 53.7473C109.879 53.7473 108.703 54.7913 108.703 56.3633C108.703 57.9353 109.495 58.7033 111.511 59.1113C112.519 59.3153 112.891 59.4713 112.891 60.0593C112.891 60.5513 112.543 60.8873 111.883 60.8873C111.115 60.8873 110.815 60.4553 110.743 59.7953L108.511 60.0233C108.655 61.5353 109.807 62.5913 111.871 62.5913C114.007 62.5913 115.171 61.4033 115.171 59.8193Z" fill="black"/>
<path d="M118.279 62.4473H120.607V59.0033H123.091V62.4473H125.419V53.8673H123.091V57.1553H120.607V53.8673H118.279V62.4473Z" fill="black"/>
<path d="M132.648 62.5913C135.12 62.5913 136.752 61.0313 136.752 58.5953V57.6353C136.752 55.1513 135.024 53.7473 132.672 53.7473C130.368 53.7473 128.58 55.2593 128.58 57.6833V58.6553C128.58 61.0433 130.176 62.5913 132.648 62.5913ZM132.672 60.7313C131.664 60.7313 131.004 59.9873 131.004 58.6433V57.6713C131.004 56.3273 131.664 55.5953 132.672 55.5953C133.68 55.5953 134.328 56.3513 134.328 57.6593V58.6313C134.328 59.9633 133.692 60.7313 132.672 60.7313Z" fill="black"/>
<path d="M139.916 62.4473H142.244V59.4233H143.336C145.412 59.4233 146.504 58.5593 146.504 56.8073V56.5913C146.504 54.8273 145.52 53.8673 143.24 53.8673H139.916V62.4473ZM142.244 57.8273V55.6193H143.144C143.876 55.6193 144.26 55.8833 144.26 56.6153V56.7953C144.26 57.5153 143.888 57.8273 143.132 57.8273H142.244Z" fill="black"/>
<path d="M149.581 62.4473H151.945V53.8673H149.581V62.4473Z" fill="black"/>
<path d="M155.471 62.4473H157.811V59.3273H160.283V57.5873H157.811V55.6793H160.871V53.8673H155.471V62.4473Z" fill="black"/>
<path d="M165.906 62.4473H168.258V58.7873L170.706 53.8673H168.498L167.19 56.7113L165.87 53.8673H163.338L165.906 58.7993V62.4473Z" fill="black"/>
<path d="M181.803 58.4473C181.803 57.2301 180.816 56.2434 179.599 56.2434C178.381 56.2434 177.395 57.2301 177.395 58.4473C177.395 59.6645 178.381 60.6513 179.599 60.6513C180.816 60.6513 181.803 59.6645 181.803 58.4473Z" fill="black"/>
<path d="M195.368 59.8193C195.368 57.9833 194.192 57.4553 192.404 57.0833C191.408 56.8793 191.132 56.6633 191.132 56.1833C191.132 55.7033 191.444 55.4393 192.02 55.4393C192.668 55.4393 192.92 55.8353 192.98 56.3393L195.164 56.1233C195.044 54.8153 194.108 53.7473 192.044 53.7473C190.076 53.7473 188.9 54.7913 188.9 56.3633C188.9 57.9353 189.692 58.7033 191.708 59.1113C192.716 59.3153 193.088 59.4713 193.088 60.0593C193.088 60.5513 192.74 60.8873 192.08 60.8873C191.312 60.8873 191.012 60.4553 190.94 59.7953L188.708 60.0233C188.852 61.5353 190.004 62.5913 192.068 62.5913C194.204 62.5913 195.368 61.4033 195.368 59.8193Z" fill="black"/>
<path d="M198.477 62.4473H200.805V59.0033H203.289V62.4473H205.617V53.8673H203.289V57.1553H200.805V53.8673H198.477V62.4473Z" fill="black"/>
<path d="M212.846 62.5913C215.318 62.5913 216.95 61.0313 216.95 58.5953V57.6353C216.95 55.1513 215.222 53.7473 212.87 53.7473C210.566 53.7473 208.778 55.2593 208.778 57.6833V58.6553C208.778 61.0433 210.374 62.5913 212.846 62.5913ZM212.87 60.7313C211.862 60.7313 211.202 59.9873 211.202 58.6433V57.6713C211.202 56.3273 211.862 55.5953 212.87 55.5953C213.878 55.5953 214.526 56.3513 214.526 57.6593V58.6313C214.526 59.9633 213.89 60.7313 212.87 60.7313Z" fill="black"/>
<path d="M220.113 62.4473H222.441V59.4233H223.533C225.609 59.4233 226.701 58.5593 226.701 56.8073V56.5913C226.701 54.8273 225.717 53.8673 223.437 53.8673H220.113V62.4473ZM222.441 57.8273V55.6193H223.341C224.073 55.6193 224.457 55.8833 224.457 56.6153V56.7953C224.457 57.5153 224.085 57.8273 223.329 57.8273H222.441Z" fill="black"/>
<path d="M229.778 62.4473H232.142V53.8673H229.778V62.4473Z" fill="black"/>
<path d="M235.668 62.4473H238.008V59.3273H240.48V57.5873H238.008V55.6793H241.068V53.8673H235.668V62.4473Z" fill="black"/>
<path d="M246.103 62.4473H248.455V58.7873L250.903 53.8673H248.695L247.387 56.7113L246.067 53.8673H243.535L246.103 58.7993V62.4473Z" fill="black"/>
<path d="M262 58.4473C262 57.2301 261.013 56.2434 259.796 56.2434C258.579 56.2434 257.592 57.2301 257.592 58.4473C257.592 59.6645 258.579 60.6513 259.796 60.6513C261.013 60.6513 262 59.6645 262 58.4473Z" fill="black"/>
<path d="M7.71289 49.3367L270.567 49.3367" stroke="black" stroke-width="1.78947" stroke-miterlimit="10"/>
<path d="M7.71289 67.585L270.567 67.585" stroke="black" stroke-width="1.78947" stroke-miterlimit="10"/>
</svg>
